<?xml version="1.0" encoding="UTF-8"?>
<!DOCTYPE svg PUBLIC "-//W3C//DTD SVG 1.1//EN" "http://www.w3.org/Graphics/SVG/1.1/DTD/svg11.dtd">
<svg xmlns="http://www.w3.org/2000/svg" version="1.1" width="605px" height="605px" style="shape-rendering:geometricPrecision; text-rendering:geometricPrecision; image-rendering:optimizeQuality; fill-rule:evenodd; clip-rule:evenodd" xmlns:xlink="http://www.w3.org/1999/xlink">
<g><path style="1" fill="#4d4d4d" d="M -0.5,-0.5 C 201.167,-0.5 402.833,-0.5 604.5,-0.5C 604.5,201.167 604.5,402.833 604.5,604.5C 402.833,604.5 201.167,604.5 -0.5,604.5C -0.5,402.833 -0.5,201.167 -0.5,-0.5 Z M 491.5,71.5 C 509.664,73.1616 516.497,82.8282 512,100.5C 508.167,109.667 501.667,116.167 492.5,120C 482.56,124.088 472.226,125.922 461.5,125.5C 464.238,110.787 469.071,96.7869 476,83.5C 479.642,77.3381 484.809,73.3381 491.5,71.5 Z M 101.5,82.5 C 120.594,83.0804 132.428,92.7471 137,111.5C 139.152,119.384 140.152,127.384 140,135.5C 125.153,132.245 110.986,127.078 97.5,120C 87.1703,114.173 84.0036,105.673 88,94.5C 90.8332,88.4933 95.3332,84.4933 101.5,82.5 Z M 295.5,232.5 C 295.667,247.837 295.5,263.17 295,278.5C 285.294,268.297 275.794,257.963 266.5,247.5C 277.714,245.393 287.381,240.393 295.5,232.5 Z M 326.5,239.5 C 337.887,245.209 349.887,247.209 362.5,245.5C 350.869,257.632 339.035,269.632 327,281.5C 326.5,267.504 326.333,253.504 326.5,239.5 Z M 234.5,259.5 C 244.3,269.468 253.967,279.635 263.5,290C 248.83,291.041 234.163,291.875 219.5,292.5C 227.405,282.769 232.405,271.769 234.5,259.5 Z M 379.5,272.5 C 383.468,277.727 387.468,283.06 391.5,288.5C 381.136,289.449 370.803,290.282 360.5,291C 366.729,284.603 373.062,278.436 379.5,272.5 Z M 389.5,319.5 C 384.911,327.601 381.911,336.267 380.5,345.5C 372.671,337.838 364.671,330.338 356.5,323C 367.461,321.43 378.461,320.264 389.5,319.5 Z M 234.5,346.5 C 232.156,338.148 228.823,330.148 224.5,322.5C 236.164,321.833 247.83,321.667 259.5,322C 251.298,330.369 242.965,338.536 234.5,346.5 Z M 359.5,368.5 C 342.635,367.935 328.635,373.935 317.5,386.5C 318.704,368.75 320.538,351.084 323,333.5C 335.365,345.034 347.532,356.7 359.5,368.5 Z M 287.5,378.5 C 276.632,372.128 264.966,370.128 252.5,372.5C 265.438,360.063 278.272,347.396 291,334.5C 289.751,349.084 288.584,363.751 287.5,378.5 Z M 470.5,470.5 C 486.702,474.067 502.035,479.9 516.5,488C 525.341,495.869 526.841,505.036 521,515.5C 514.403,523.415 506.236,525.582 496.5,522C 482.065,514.669 473.898,502.836 472,486.5C 471.17,481.192 470.67,475.859 470.5,470.5 Z M 132.5,473.5 C 136.167,473.5 139.833,473.5 143.5,473.5C 140.614,488.994 135.447,503.66 128,517.5C 117.865,530.115 106.865,530.782 95,519.5C 88.9441,504.66 92.4441,492.494 105.5,483C 114.032,478.129 123.032,474.962 132.5,473.5 Z"/></g>
<g><path style="opacity:0.999" fill="#010101" d="M 348.5,110.5 C 331.304,111.514 318.47,119.514 310,134.5C 307.255,140.325 304.255,145.992 301,151.5C 295.111,136.612 285.278,125.112 271.5,117C 260.388,113.399 249.055,112.566 237.5,114.5C 236.362,111.696 236.195,108.696 237,105.5C 243.969,81.3668 257.469,61.8668 277.5,47C 285.584,41.7061 294.418,38.5394 304,37.5C 313.054,37.6934 320.387,41.3601 326,48.5C 338.74,67.2151 346.24,87.8817 348.5,110.5 Z"/></g>
<g><path style="opacity:0.999" fill="#f1f1f1" d="M 348.5,110.5 C 395.654,113 417.987,138 415.5,185.5C 440.677,171.782 462.844,175.449 482,196.5C 490.679,206.855 497.012,218.522 501,231.5C 502.095,236.78 502.595,242.113 502.5,247.5C 498.056,269.923 486.723,287.923 468.5,301.5C 493.703,312.413 506.036,331.747 505.5,359.5C 506.138,401.696 485.305,423.029 443,423.5C 435.959,423.679 429.125,422.845 422.5,421C 427.875,434.507 427.708,448.007 422,461.5C 415.871,477.935 405.371,490.768 390.5,500C 383.45,502.921 376.117,504.088 368.5,503.5C 344.399,500.62 325.399,489.287 311.5,469.5C 300.22,488.822 283.553,500.822 261.5,505.5C 241.611,508.922 225.444,502.588 213,486.5C 201.543,472.915 195.043,457.249 193.5,439.5C 193.604,434.312 194.604,429.312 196.5,424.5C 172.407,430.695 150.074,426.528 129.5,412C 117.607,400.036 111.273,385.536 110.5,368.5C 107.245,347.099 113.245,328.932 128.5,314C 133.51,310.493 138.843,307.493 144.5,305C 126.561,292.578 114.228,276.078 107.5,255.5C 105.468,241.825 107.634,228.825 114,216.5C 120.341,205.158 128.508,195.325 138.5,187C 150.54,180.026 163.207,178.693 176.5,183C 181.278,184.556 185.945,186.39 190.5,188.5C 190.068,178.202 190.568,167.869 192,157.5C 194.324,143.186 201.49,132.019 213.5,124C 221.186,119.722 229.186,116.556 237.5,114.5C 249.055,112.566 260.388,113.399 271.5,117C 285.278,125.112 295.111,136.612 301,151.5C 304.255,145.992 307.255,140.325 310,134.5C 318.47,119.514 331.304,111.514 348.5,110.5 Z M 295.5,232.5 C 295.667,247.837 295.5,263.17 295,278.5C 285.294,268.297 275.794,257.963 266.5,247.5C 277.714,245.393 287.381,240.393 295.5,232.5 Z M 326.5,239.5 C 337.887,245.209 349.887,247.209 362.5,245.5C 350.869,257.632 339.035,269.632 327,281.5C 326.5,267.504 326.333,253.504 326.5,239.5 Z M 234.5,259.5 C 244.3,269.468 253.967,279.635 263.5,290C 248.83,291.041 234.163,291.875 219.5,292.5C 227.405,282.769 232.405,271.769 234.5,259.5 Z M 379.5,272.5 C 383.468,277.727 387.468,283.06 391.5,288.5C 381.136,289.449 370.803,290.282 360.5,291C 366.729,284.603 373.062,278.436 379.5,272.5 Z M 389.5,319.5 C 384.911,327.601 381.911,336.267 380.5,345.5C 372.671,337.838 364.671,330.338 356.5,323C 367.461,321.43 378.461,320.264 389.5,319.5 Z M 234.5,346.5 C 232.156,338.148 228.823,330.148 224.5,322.5C 236.164,321.833 247.83,321.667 259.5,322C 251.298,330.369 242.965,338.536 234.5,346.5 Z M 359.5,368.5 C 342.635,367.935 328.635,373.935 317.5,386.5C 318.704,368.75 320.538,351.084 323,333.5C 335.365,345.034 347.532,356.7 359.5,368.5 Z M 287.5,378.5 C 276.632,372.128 264.966,370.128 252.5,372.5C 265.438,360.063 278.272,347.396 291,334.5C 289.751,349.084 288.584,363.751 287.5,378.5 Z"/></g>
<g><path style="opacity:1" fill="#999999" d="M 323.5,236.5 C 324.319,252.759 324.819,269.093 325,285.5C 339.035,271.632 352.869,257.632 366.5,243.5C 368.919,241.138 371.919,240.138 375.5,240.5C 375.387,247.254 376.053,253.921 377.5,260.5C 378.345,263.826 378.845,267.16 379,270.5C 371.5,278 364,285.5 356.5,293C 369.126,291.947 381.792,290.781 394.5,289.5C 399.04,295.032 404.707,299.032 411.5,301.5C 403.9,305.442 397.566,310.775 392.5,317.5C 379.412,318.342 366.412,319.842 353.5,322C 362.637,330.136 371.47,338.636 380,347.5C 380.174,352.684 380.674,357.684 381.5,362.5C 382.246,368.054 383.579,373.387 385.5,378.5C 378.472,375.401 371.138,372.901 363.5,371C 362.944,370.617 362.611,370.117 362.5,369.5C 348.881,356.215 335.214,342.882 321.5,329.5C 318.839,350.102 316.839,370.769 315.5,391.5C 312.697,394.417 310.363,397.75 308.5,401.5C 303.469,393.472 297.136,386.806 289.5,381.5C 288.957,380.258 288.623,378.925 288.5,377.5C 289.866,364.006 291.199,350.506 292.5,337C 292.167,335.167 291.833,333.333 291.5,331.5C 276.812,345.521 262.479,359.854 248.5,374.5C 242.711,375.537 237.377,377.537 232.5,380.5C 232.942,376.846 233.276,373.179 233.5,369.5C 234.329,362.679 234.829,355.679 235,348.5C 244.167,339.333 253.333,330.167 262.5,321C 248.504,320.5 234.504,320.333 220.5,320.5C 217.369,317.871 214.369,315.038 211.5,312C 207.833,309.833 204.167,307.667 200.5,305.5C 200.977,304.522 201.643,303.689 202.5,303C 205.633,301.684 208.633,300.184 211.5,298.5C 213.886,297.627 215.886,296.127 217.5,294C 233.853,293.526 250.187,292.693 266.5,291.5C 256.184,280.016 245.684,268.683 235,257.5C 234.501,253.179 234.334,248.846 234.5,244.5C 235.5,244.5 236.5,244.5 237.5,244.5C 241.343,246.086 245.343,247.086 249.5,247.5C 254.316,248.326 259.316,248.826 264.5,249C 275,260.167 285.5,271.333 296,282.5C 296.5,264.836 296.667,247.17 296.5,229.5C 298.782,225.223 301.449,221.223 304.5,217.5C 307.546,220.385 310.046,223.718 312,227.5C 315.155,231.503 318.988,234.503 323.5,236.5 Z M 378.5 C 276.632,372.128 264.966,370.128 252.5,372.5C 265.438,360.063 278.272,347.396 291,334.5C 289.751,349.084 288.584,363.751 287.5,378.5 Z"/></g>
<g><path style="opacity:0.999" fill="#000000" d="M 502.5,247.5 C 534.293,253.967 557.459,271.634 572,300.5C 578.049,313.353 576.216,324.853 566.5,335C 548.276,348.137 527.942,356.303 505.5,359.5C 506.036,331.747 493.703,312.413 468.5,301.5C 486.723,287.923 498.056,269.923 502.5,247.5 Z"/></g>
<g><path style="opacity:0.999" fill="#000000" d="M 107.5,255.5 C 114.228,276.078 126.561,292.578 144.5,305C 138.843,307.493 133.51,310.493 128.5,314C 113.245,328.932 107.245,347.099 110.5,368.5C 80.0554,365.033 56.2221,350.7 39,325.5C 33.9487,317.512 30.7821,308.845 29.5,299.5C 31.7886,288.378 37.7886,279.878 47.5,274C 66.181,263.497 86.181,257.331 107.5,255.5 Z"/></g>

<g><path style="opacity:0.999" fill="#000000" d="M 368.5,503.5 C 368.923,504.265 369.257,505.098 369.5,506C 361.838,529.309 347.838,547.643 327.5,561C 320.222,565.315 312.388,567.815 304,568.5C 294.369,567.846 286.703,563.513 281,555.5C 271.067,540.206 264.567,523.54 261.5,505.5C 283.553,500.822 300.22,488.822 311.5,469.5C 325.399,489.287 344.399,500.62 368.5,503.5 Z"/></g>
</svg>
